<?xml version="1.0" encoding="UTF-8"?>
<svg width="20px" height="18px" viewBox="0 0 20 18" version="1.1" xmlns="http://www.w3.org/2000/svg" xmlns:xlink="http://www.w3.org/1999/xlink">
    <!-- Generator: Sketch 49.2 (51160) - http://www.bohemiancoding.com/sketch -->
    <title>chat-46</title>
    <desc>Created with Sketch.</desc>
    <defs></defs>
    <g id="Schlecht" stroke="none" stroke-width="1" fill="none" fill-rule="evenodd">
        <g id="Start" transform="translate(-1053.000000, -31.000000)" fill="#FFFFFF" fill-rule="nonzero">
            <g id="Menu">
                <g id="Group-2" transform="translate(910.000000, 28.000000)">
                    <g id="Icons" transform="translate(113.000000, 2.000000)">
                        <g id="chat-46" transform="translate(30.000000, 1.000000)">
                            <path d="M19.18125,4.8 L17.325,4.8 L17.325,11.4 C17.325,12.063 16.7712187,12.6 16.0875,12.6 L9.36045,12.6 L6.531525,15 L12.177,15 L16.3467562,17.8878 C16.533,18.0174 16.7792625,18.0372 16.9896375,17.9334 C17.1956812,17.8308 17.325,17.625 17.325,17.4 L17.325,15 L19.18125,15 C19.5228,15 19.8,14.7312 19.8,14.4 L19.8,5.4 C19.8,5.0688 19.5228,4.8 19.18125,4.8 Z" id="Shape"></path>
                            <path d="M15.46875,0 L0.61875,0 C0.27658125,0 0,0.2682 0,0.6 L0,10.8 C0,11.1318 0.27658125,11.4 0.61875,11.4 L3.09375,11.4 L3.09375,15 C3.09375,15.2358 3.23544375,15.4488 3.45695625,15.546 C3.6741375,15.6426 3.93525,15.6078 4.1196375,15.4518 L8.89515,11.4 L15.46875,11.4 C15.8109188,11.4 16.0875,11.1318 16.0875,10.8 L16.0875,0.6 C16.0875,0.2682 15.8109188,0 15.46875,0 Z" id="Shape"></path>
                        </g>
                    </g>
                </g>
            </g>
        </g>
    </g>
</svg>