<?xml version="1.0" encoding="UTF-8"?>
<svg width="85px" height="15px" viewBox="0 0 85 15" version="1.1" xmlns="http://www.w3.org/2000/svg" xmlns:xlink="http://www.w3.org/1999/xlink">
    <!-- Generator: Sketch 49.2 (51160) - http://www.bohemiancoding.com/sketch -->
    <title>Dislike</title>
    <desc>Created with Sketch.</desc>
    <defs></defs>
    <g id="Schlecht" stroke="none" stroke-width="1" fill="none" fill-rule="evenodd">
        <g id="Start" transform="translate(-588.000000, -605.000000)" fill="#4A4A4A">
            <g id="Group-3" transform="translate(0.000000, 80.000000)">
                <g id="Post" transform="translate(271.000000, 100.000000)">
                    <g id="Dislike" transform="translate(317.000000, 425.000000)">
                        <path d="M26.14,11.64 L28.94,11.64 C29.3933356,11.64 29.8333312,11.5666674 30.26,11.42 C30.6866688,11.2733326 31.066665,11.0300017 31.4,10.69 C31.733335,10.3499983 31.999999,9.90666937 32.2,9.35999998 C32.400001,8.81333058 32.5,8.14667058 32.5,7.35999998 C32.5,6.63999638 32.4300007,5.99000288 32.29,5.40999999 C32.1499993,4.82999709 31.9200016,4.33333539 31.6,3.91999999 C31.2799984,3.50666459 30.8566693,3.19000109 30.33,2.96999999 C29.8033307,2.74999889 29.1533372,2.63999999 28.38,2.63999999 L26.14,2.63999999 L26.14,11.64 Z M23,0 L29.16,0 C30.0800046,0 30.9366627,0.1466652 31.73,0.439999999 C32.5233373,0.733334798 33.2099971,1.1733304 33.79,1.76 C34.3700029,2.34666959 34.8233317,3.07999559 35.15,3.95999999 C35.4766683,4.84000439 35.64,5.87332738 35.64,7.05999998 C35.64,8.10000518 35.506668,9.05999558 35.24,9.93999997 C34.973332,10.8200044 34.5700027,11.5799968 34.03,12.22 C33.4899973,12.8600032 32.8166707,13.3633315 32.01,13.73 C31.2033293,14.0966685 30.2533388,14.28 29.16,14.28 L23,14.28 L23,0 Z M40.44,2.33999999 L37.6,2.33999999 L37.6,0 L40.44,0 L40.44,2.33999999 Z M37.6,3.93999999 L40.44,3.93999999 L40.44,14.28 L37.6,14.28 L37.6,3.93999999 Z M44.8799999,10.92 C44.8799999,11.2266682 44.9433326,11.4899989 45.0699999,11.71 C45.1966672,11.9300011 45.3599989,12.1099993 45.5599999,12.25 C45.7600009,12.3900007 45.9899986,12.493333 46.2499999,12.56 C46.5100012,12.626667 46.7799985,12.66 47.0599999,12.66 C47.2600009,12.66 47.4699988,12.6366669 47.6899999,12.59 C47.910001,12.5433331 48.109999,12.4700005 48.2899999,12.37 C48.4700008,12.2699995 48.6199993,12.1366675 48.7399999,11.97 C48.8600005,11.8033325 48.9199999,11.5933346 48.9199999,11.34 C48.9199999,10.9133312 48.6366694,10.5933344 48.0699999,10.38 C47.5033304,10.1666656 46.7133383,9.95333437 45.6999999,9.73999997 C45.2866645,9.64666617 44.8833352,9.53666727 44.4899999,9.40999998 C44.0966646,9.28333268 43.7466681,9.11666768 43.4399999,8.90999998 C43.1333317,8.70333228 42.8866675,8.44333488 42.6999999,8.12999998 C42.5133323,7.81666508 42.4199999,7.43333558 42.4199999,6.97999998 C42.4199999,6.31332998 42.5499986,5.76666878 42.8099999,5.33999999 C43.0700012,4.91333119 43.4133311,4.57666789 43.8399999,4.32999999 C44.2666687,4.08333209 44.7466639,3.91000049 45.2799999,3.80999999 C45.8133359,3.70999949 46.3599971,3.65999999 46.9199999,3.65999999 C47.4800027,3.65999999 48.0233306,3.71333279 48.5499999,3.81999999 C49.0766692,3.92666719 49.5466645,4.10666539 49.9599999,4.35999999 C50.3733353,4.61333459 50.7166652,4.94999789 50.9899999,5.36999999 C51.2633346,5.79000208 51.4266663,6.31999678 51.4799999,6.95999998 L48.7799999,6.95999998 C48.7399997,6.41333058 48.5333351,6.04333428 48.1599999,5.84999998 C47.7866647,5.65666569 47.3466691,5.55999999 46.8399999,5.55999999 C46.6799991,5.55999999 46.5066675,5.56999989 46.3199999,5.58999999 C46.1333323,5.61000009 45.963334,5.65333299 45.8099999,5.71999998 C45.6566658,5.78666698 45.5266671,5.88333268 45.4199999,6.00999998 C45.3133327,6.13666728 45.2599999,6.30666558 45.2599999,6.51999998 C45.2599999,6.77333458 45.3533323,6.97999918 45.5399999,7.13999998 C45.7266675,7.30000078 45.9699984,7.42999948 46.2699999,7.52999998 C46.5700014,7.63000048 46.9133313,7.71999958 47.2999999,7.79999998 C47.6866685,7.88000038 48.0799979,7.96666618 48.4799999,8.05999998 C48.8933353,8.15333378 49.2966646,8.26666598 49.6899999,8.39999998 C50.0833352,8.53333398 50.4333317,8.70999888 50.7399999,8.92999998 C51.0466681,9.15000108 51.2933323,9.42333168 51.4799999,9.74999997 C51.6666675,10.0766683 51.7599999,10.4799976 51.7599999,10.96 C51.7599999,11.6400034 51.6233346,12.2099977 51.3499999,12.67 C51.0766652,13.1300023 50.7200021,13.4999986 50.2799999,13.78 C49.8399977,14.0600014 49.3366694,14.2566661 48.7699999,14.37 C48.2033304,14.4833339 47.6266695,14.54 47.0399999,14.54 C46.4399969,14.54 45.8533361,14.4800006 45.2799999,14.36 C44.7066637,14.2399994 44.1966688,14.0400014 43.7499999,13.76 C43.303331,13.4799986 42.936668,13.1100023 42.6499999,12.65 C42.3633318,12.1899977 42.2066667,11.6133368 42.1799999,10.92 L44.8799999,10.92 Z M53.4999999,0 L56.3399999,0 L56.3399999,14.28 L53.4999999,14.28 L53.4999999,0 Z M61.4999999,2.33999999 L58.6599999,2.33999999 L58.6599999,0 L61.4999999,0 L61.4999999,2.33999999 Z M58.6599999,3.93999999 L61.4999999,3.93999999 L61.4999999,14.28 L58.6599999,14.28 L58.6599999,3.93999999 Z M63.9999999,0 L66.8399999,0 L66.8399999,7.65999998 L70.4199999,3.93999999 L73.7799999,3.93999999 L69.8799999,7.73999998 L74.2199999,14.28 L70.7799999,14.28 L67.9399999,9.65999997 L66.8399999,10.72 L66.8399999,14.28 L63.9999999,14.28 L63.9999999,0 Z M82.1799998,7.99999998 C82.0466658,7.27999638 81.8100015,6.73333518 81.4699998,6.35999998 C81.1299981,5.98666478 80.6133366,5.79999998 79.9199999,5.79999998 C79.4666643,5.79999998 79.0900014,5.87666588 78.7899999,6.02999998 C78.4899984,6.18333408 78.2500008,6.37333218 78.0699999,6.59999998 C77.889999,6.82666778 77.7633336,7.06666538 77.6899999,7.31999998 C77.6166662,7.57333458 77.5733333,7.79999898 77.5599999,7.99999998 L82.1799998,7.99999998 Z M77.5599999,9.79999997 C77.6000001,10.7200046 77.8333311,11.3866646 78.2599999,11.8 C78.6866687,12.2133354 79.2999959,12.42 80.0999999,12.42 C80.673336,12.42 81.1666644,12.2766681 81.5799998,11.99 C81.9933352,11.7033319 82.246666,11.4000016 82.3399998,11.08 L84.8399998,11.08 C84.4399978,12.3200062 83.8266706,13.206664 82.9999998,13.74 C82.173329,14.273336 81.173339,14.54 79.9999999,14.54 C79.1866625,14.54 78.4533365,14.4100013 77.7999999,14.15 C77.1466633,13.8899987 76.5933355,13.5200024 76.1399999,13.04 C75.6866643,12.5599976 75.3366678,11.98667 75.0899999,11.32 C74.843332,10.65333 74.7199999,9.92000397 74.7199999,9.11999998 C74.7199999,8.34666278 74.8466653,7.62666998 75.0999999,6.95999998 C75.3533345,6.29332998 75.7133309,5.71666909 76.1799999,5.22999999 C76.6466689,4.74333089 77.20333,4.36000139 77.8499999,4.07999999 C78.4966698,3.79999859 79.2133293,3.65999999 79.9999999,3.65999999 C80.8800042,3.65999999 81.6466632,3.82999829 82.2999998,4.16999999 C82.9533364,4.51000169 83.4899977,4.96666379 83.9099998,5.53999999 C84.3300019,6.11333618 84.6333322,6.76666298 84.8199998,7.49999998 C85.0066674,8.23333698 85.0733334,8.99999598 85.0199998,9.79999997 L77.5599999,9.79999997 Z"></path>
                        <g id="like-2-copy" transform="translate(7.724375, 7.270000) scale(1, -1) translate(-7.724375, -7.270000) " fill-rule="nonzero">
                            <path d="M12.086375,5.45249999 L8.17874998,5.45249999 L8.17874998,1.8175 C8.17874998,0.454374999 7.45174998,0 6.36124998,0 C6.08862498,0 5.81599998,0.18175 5.81599998,0.454374999 C5.81599998,0.454374999 3.72587499,7.26999998 3.63499999,7.26999998 L3.63499999,14.54 L11.45025,14.54 C12.631625,14.54 13.63125,13.63125 13.813,12.449875 L14.54,8.26962498 C14.630875,7.54262498 14.449125,6.81562498 13.99475,6.36124998 C13.540375,5.72512498 12.813375,5.45249999 12.086375,5.45249999 Z" id="Shape"></path>
                            <rect id="Rectangle-path" x="0" y="7.26999998" width="1.8175" height="7.26999998"></rect>
                        </g>
                    </g>
                </g>
            </g>
        </g>
    </g>
</svg>