<?xml version="1.0" encoding="UTF-8"?>
<svg width="20px" height="20px" viewBox="0 0 20 20" version="1.1" xmlns="http://www.w3.org/2000/svg" xmlns:xlink="http://www.w3.org/1999/xlink">
    <!-- Generator: Sketch 49.2 (51160) - http://www.bohemiancoding.com/sketch -->
    <title>multiple-11</title>
    <desc>Created with Sketch.</desc>
    <defs></defs>
    <g id="Schlecht" stroke="none" stroke-width="1" fill="none" fill-rule="evenodd">
        <g id="Start" transform="translate(-1023.000000, -30.000000)" fill="#FFFFFF" fill-rule="nonzero">
            <g id="Menu">
                <g id="Group-2" transform="translate(910.000000, 28.000000)">
                    <g id="Icons" transform="translate(113.000000, 2.000000)">
                        <g id="multiple-11">
                            <circle id="Oval" cx="3.5483871" cy="3.5483871" r="2.25806452"></circle>
                            <path d="M5.16129032,14.1935484 L5.16129032,10 C5.16129032,9.04096774 5.54516129,8.17096774 6.16580645,7.53193548 C5.79258065,7.25967742 5.33483871,7.09677419 4.83870968,7.09677419 L2.25806452,7.09677419 C1.01290323,7.09677419 0,8.10967742 0,9.35483871 L0,11.9354839 C0,12.0577419 0.0690322581,12.1693548 0.178387097,12.2241935 L1.30419355,12.7870968 L1.61354839,17.12 C1.62580645,17.2887097 1.76645161,17.4193548 1.93548387,17.4193548 L5.16129032,17.4193548 C5.33032258,17.4193548 5.47096774,17.2887097 5.48322581,17.1196774 L5.63290323,15.0235484 C5.34774194,14.8522581 5.16129032,14.5406452 5.16129032,14.1935484 Z" id="Shape"></path>
                            <circle id="Oval" cx="16.4516129" cy="3.5483871" r="2.25806452"></circle>
                            <path d="M14.8387097,14.1935484 L14.8387097,10 C14.8387097,9.04096774 14.4548387,8.17096774 13.8341935,7.53193548 C14.2074194,7.25967742 14.6651613,7.09677419 15.1612903,7.09677419 L17.7419355,7.09677419 C18.9870968,7.09677419 20,8.10967742 20,9.35483871 L20,11.9354839 C20,12.0577419 19.9309677,12.1693548 19.8216129,12.2241935 L18.6958065,12.7870968 L18.3864516,17.12 C18.3741935,17.2887097 18.2335484,17.4193548 18.0645161,17.4193548 L14.8387097,17.4193548 C14.6696774,17.4193548 14.5290323,17.2887097 14.5167742,17.1196774 L14.3670968,15.0235484 C14.6522581,14.8522581 14.8387097,14.5406452 14.8387097,14.1935484 Z" id="Shape"></path>
                            <path d="M11.2903226,7.09677419 L8.70967742,7.09677419 C7.10903226,7.09677419 5.80645161,8.39935484 5.80645161,10 L5.80645161,14.1935484 C5.80645161,14.3474194 5.91483871,14.4796774 6.06580645,14.5096774 L7.43548387,14.7835484 L7.74258065,19.6974194 C7.75322581,19.8674194 7.89419355,20 8.06451613,20 L11.9354839,20 C12.1058065,20 12.2467742,19.8674194 12.2574194,19.6974194 L12.5645161,14.783871 L13.9341935,14.51 C14.0851613,14.4796774 14.1935484,14.3474194 14.1935484,14.1935484 L14.1935484,10 C14.1935484,8.39935484 12.8909677,7.09677419 11.2903226,7.09677419 Z" id="Shape"></path>
                            <path d="M10,5.80645161 C11.6006452,5.80645161 12.9032258,4.50387097 12.9032258,2.90322581 C12.9032258,1.30258065 11.6006452,0 10,0 C8.39935484,0 7.09677419,1.30258065 7.09677419,2.90322581 C7.09677419,4.50387097 8.39935484,5.80645161 10,5.80645161 Z" id="Shape"></path>
                        </g>
                    </g>
                </g>
            </g>
        </g>
    </g>
</svg>