<?xml version="1.0" encoding="UTF-8"?>
<svg width="61px" height="15px" viewBox="0 0 61 15" version="1.1" xmlns="http://www.w3.org/2000/svg" xmlns:xlink="http://www.w3.org/1999/xlink">
    <!-- Generator: Sketch 49.2 (51160) - http://www.bohemiancoding.com/sketch -->
    <title>Like</title>
    <desc>Created with Sketch.</desc>
    <defs></defs>
    <g id="Schlecht" stroke="none" stroke-width="1" fill="none" fill-rule="evenodd">
        <g id="Start" transform="translate(-468.000000, -605.000000)" fill="#4A4A4A">
            <g id="Group-3" transform="translate(0.000000, 80.000000)">
                <g id="Post" transform="translate(271.000000, 100.000000)">
                    <g id="Like" transform="translate(197.000000, 425.000000)">
                        <path d="M23,0 L26.14,0 L26.14,11.64 L33.1,11.64 L33.1,14.28 L23,14.28 L23,0 Z M37.48,2.34 L34.64,2.34 L34.64,0 L37.48,0 L37.48,2.34 Z M34.64,3.94 L37.48,3.94 L37.48,14.28 L34.64,14.28 L34.64,3.94 Z M39.98,0 L42.82,0 L42.82,7.66 L46.4,3.94 L49.76,3.94 L45.86,7.74 L50.2,14.28 L46.76,14.28 L43.92,9.66 L42.82,10.72 L42.82,14.28 L39.98,14.28 L39.98,0 Z M58.16,8 C58.026666,7.2799964 57.7900017,6.7333352 57.45,6.36 C57.1099983,5.9866648 56.5933368,5.8 55.9,5.8 C55.4466644,5.8 55.0700015,5.8766659 54.77,6.03 C54.4699985,6.1833341 54.2300009,6.3733322 54.05,6.6 C53.8699991,6.8266678 53.7433337,7.0666654 53.67,7.32 C53.5966663,7.5733346 53.5533334,7.799999 53.54,8 L58.16,8 Z M53.54,9.8 C53.5800002,10.7200046 53.8133312,11.3866646 54.24,11.8 C54.6666688,12.2133354 55.279996,12.42 56.08,12.42 C56.6533362,12.42 57.1466646,12.2766681 57.56,11.99 C57.9733354,11.7033319 58.2266662,11.4000016 58.32,11.08 L60.82,11.08 C60.419998,12.3200062 59.8066708,13.206664 58.98,13.74 C58.1533292,14.273336 57.1533392,14.54 55.98,14.54 C55.1666626,14.54 54.4333366,14.4100013 53.78,14.15 C53.1266634,13.8899987 52.5733356,13.5200024 52.12,13.04 C51.6666644,12.5599976 51.3166679,11.98667 51.07,11.32 C50.8233321,10.65333 50.7,9.920004 50.7,9.12 C50.7,8.3466628 50.8266654,7.62667 51.08,6.96 C51.3333346,6.29333 51.693331,5.7166691 52.16,5.23 C52.626669,4.7433309 53.1833301,4.3600014 53.83,4.08 C54.4766699,3.7999986 55.1933294,3.66 55.98,3.66 C56.8600044,3.66 57.6266634,3.8299983 58.28,4.17 C58.9333366,4.5100017 59.4699979,4.9666638 59.89,5.54 C60.3100021,6.1133362 60.6133324,6.766663 60.8,7.5 C60.9866676,8.233337 61.0533336,8.999996 61,9.8 L53.54,9.8 Z"></path>
                        <g id="like-2" fill-rule="nonzero">
                            <path d="M12.086375,5.45249999 L8.17874998,5.45249999 L8.17874998,1.8175 C8.17874998,0.454374999 7.45174998,0 6.36124998,0 C6.08862498,0 5.81599998,0.18175 5.81599998,0.454374999 C5.81599998,0.454374999 3.72587499,7.26999998 3.63499999,7.26999998 L3.63499999,14.54 L11.45025,14.54 C12.631625,14.54 13.63125,13.63125 13.813,12.449875 L14.54,8.26962498 C14.630875,7.54262498 14.449125,6.81562498 13.99475,6.36124998 C13.540375,5.72512498 12.813375,5.45249999 12.086375,5.45249999 Z" id="Shape"></path>
                            <rect id="Rectangle-path" x="0" y="7.26999998" width="1.8175" height="7.26999998"></rect>
                        </g>
                    </g>
                </g>
            </g>
        </g>
    </g>
</svg>