<?xml version="1.0" encoding="UTF-8"?>
<svg width="20px" height="20px" viewBox="0 0 20 20" version="1.1" xmlns="http://www.w3.org/2000/svg" xmlns:xlink="http://www.w3.org/1999/xlink">
    <!-- Generator: Sketch 49.2 (51160) - http://www.bohemiancoding.com/sketch -->
    <title>bell-53</title>
    <desc>Created with Sketch.</desc>
    <defs></defs>
    <g id="Schlecht" stroke="none" stroke-width="1" fill="none" fill-rule="evenodd">
        <g id="Start" transform="translate(-1083.000000, -30.000000)" fill="#FFFFFF" fill-rule="nonzero">
            <g id="Menu">
                <g id="Group-2" transform="translate(910.000000, 28.000000)">
                    <g id="Icons" transform="translate(113.000000, 2.000000)">
                        <g id="bell-53" transform="translate(60.000000, 0.000000)">
                            <path d="M19.2,15.6 C19.2,15.6 16.6666667,12.4666667 16.6666667,9.33333333 L16.6666667,6.66666667 C16.6666667,3 13.6666667,-1.77635684e-15 10,-1.77635684e-15 C6.33333333,-1.77635684e-15 3.33333333,3 3.33333333,6.66666667 L3.33333333,9.33333333 C3.33333333,12.4666667 0.866666667,15.5333333 0.8,15.6 C0.666666667,15.8 0.6,16.0666667 0.733333333,16.3333333 C0.866666667,16.5333333 1.06666667,16.6666667 1.33333333,16.6666667 L18.6666667,16.6666667 C18.9333333,16.6666667 19.1333333,16.5333333 19.2666667,16.2666667 C19.4,16.0666667 19.3333333,15.8 19.2,15.6 Z" id="Shape"></path>
                            <path d="M7.4,18 C7.66666667,19.1333333 8.73333333,20 10,20 C11.2666667,20 12.2666667,19.1333333 12.6,18 L7.4,18 Z" id="Shape"></path>
                        </g>
                    </g>
                </g>
            </g>
        </g>
    </g>
</svg>