<?xml version="1.0" encoding="UTF-8"?>
<svg width="15px" height="15px" viewBox="0 0 15 15" version="1.1" xmlns="http://www.w3.org/2000/svg" xmlns:xlink="http://www.w3.org/1999/xlink">
    <!-- Generator: Sketch 49.2 (51160) - http://www.bohemiancoding.com/sketch -->
    <title>Shape</title>
    <desc>Created with Sketch.</desc>
    <defs></defs>
    <g id="Schlecht" stroke="none" stroke-width="1" fill="none" fill-rule="evenodd">
        <g id="Start" transform="translate(-336.000000, -33.000000)" fill="#666666" fill-rule="nonzero">
            <g id="Menu">
                <g id="Button" transform="translate(108.000000, 26.000000)">
                    <g id="ic_search_48px" transform="translate(228.000000, 7.000000)">
                        <path d="M10.7204117,9.43396226 L10.0385935,9.43396226 L9.80274443,9.19811321 C10.6432247,8.22469983 11.1492281,6.95969125 11.1492281,5.57461407 C11.1492281,2.49571184 8.6535163,0 5.57461407,0 C2.49571184,0 0,2.49571184 0,5.57461407 C0,8.6535163 2.49571184,11.1492281 5.57461407,11.1492281 C6.95969125,11.1492281 8.22469983,10.6432247 9.19811321,9.80703259 L9.43396226,10.0428816 L9.43396226,10.7204117 L13.7221269,15 L15,13.7221269 L10.7204117,9.43396226 Z M5.57461407,9.43396226 C3.44339623,9.43396226 1.71526587,7.7058319 1.71526587,5.57461407 C1.71526587,3.44339623 3.44339623,1.71526587 5.57461407,1.71526587 C7.7058319,1.71526587 9.43396226,3.44339623 9.43396226,5.57461407 C9.43396226,7.7058319 7.7058319,9.43396226 5.57461407,9.43396226 Z" id="Shape"></path>
                    </g>
                </g>
            </g>
        </g>
    </g>
</svg>